/* XPM */
static char *result[] = {
/* columns rows colors chars-per-pixel */
"40 40 2 1 ",
"  c #FB6BC2",
". c #E8B8EC",
/* pixels */
"..........          ..........          ",
"..........          ..........          ",
"..........          ..........          ",
"..........          ..........          ",
"..........          ..........          ",
"..........          ..........          ",
"..........          ..........          ",
"..........          ..........          ",
"..........          ..........          ",
"..........          ..........          ",
"          ..........          ..........",
"          ..........          ..........",
"          ..........          ..........",
"          ..........          ..........",
"          ..........          ..........",
"          ..........          ..........",
"          ..........          ..........",
"          ..........          ..........",
"          ..........          ..........",
"          ..........          ..........",
"..........          ..........          ",
"..........          ..........          ",
"..........          ..........          ",
"..........          ..........          ",
"..........          ..........          ",
"..........          ..........          ",
"..........          ..........          ",
"..........          ..........          ",
"..........          ..........          ",
"..........          ..........          ",
"          ..........          ..........",
"          ..........          ..........",
"          ..........          ..........",
"          ..........          ..........",
"          ..........          ..........",
"          ..........          ..........",
"          ..........          ..........",
"          ..........          ..........",
"          ..........          ..........",
"          ..........          .........."
};
