/* XPM */
static char *_1b8c998360044838386bd01d8aeda01q7KlNMWegdzXOSx7[] = {
/* columns rows colors chars-per-pixel */
"40 40 170 2 ",
"   c #6C6768",
".  c #6B6868",
"X  c #75676C",
"o  c #736A6D",
"O  c #78686E",
"+  c #776D72",
"@  c #7C6C73",
"#  c #7E747C",
"$  c #826B76",
"%  c #846C79",
"&  c #8B6C7B",
"*  c #926C7E",
"=  c #986C7F",
"-  c #84737E",
";  c #8E717F",
":  c #956C80",
">  c #9D6C82",
",  c #9F6989",
"<  c #847580",
"1  c #897B87",
"2  c #8D7E8C",
"3  c #927384",
"4  c #9D7186",
"5  c #947788",
"6  c #9C7489",
"7  c #957B8D",
"8  c #9D7A8F",
"9  c #AF6784",
"0  c #A46C84",
"q  c #AA6A85",
"w  c #A4698C",
"e  c #AC6E8A",
"r  c #B36785",
"t  c #B26886",
"y  c #BC6689",
"u  c #B36C8A",
"i  c #BC6B8E",
"p  c #A07287",
"a  c #A4738B",
"s  c #AC728E",
"d  c #B2708F",
"f  c #AD6991",
"g  c #B56996",
"h  c #AA7691",
"j  c #A37E96",
"k  c #A87993",
"l  c #AF7D9A",
"z  c #B57493",
"x  c #BB7496",
"c  c #B37997",
"v  c #B9779A",
"b  c #B67C9B",
"n  c #BF7A9D",
"m  c #BC7FA1",
"M  c #EF5F97",
"N  c #F55C97",
"B  c #F55D98",
"V  c #F95E9A",
"C  c #C5678D",
"Z  c #C9678F",
"A  c #C2698D",
"S  c #CE6791",
"D  c #C66B92",
"F  c #CA6A92",
"G  c #C36A9F",
"H  c #CE6E99",
"J  c #D36693",
"K  c #D96796",
"L  c #D36995",
"P  c #D86997",
"I  c #DE6798",
"U  c #D36C98",
"Y  c #DD6999",
"T  c #C67097",
"R  c #C77198",
"E  c #CB739B",
"W  c #C4799E",
"Q  c #D2719D",
"!  c #E6669B",
"~  c #ED659C",
"^  c #E3699C",
"/  c #EB689E",
"(  c #F3629D",
")  c #F9619D",
"_  c #CD6AA5",
"`  c #D16AA7",
"'  c #DF6DA4",
"]  c #DF6CAB",
"[  c #CD77A1",
"{  c #C27DA1",
"}  c #CC7CA4",
"|  c #D574A3",
" . c #DD74A5",
".. c #D479A6",
"X. c #D978A6",
"o. c #DD74A8",
"O. c #DC7BAB",
"+. c #DE73B1",
"@. c #E46EA2",
"#. c #EC6DA3",
"$. c #EE6DA5",
"%. c #EA6CAB",
"&. c #F367A1",
"*. c #F26BA4",
"=. c #F26EAA",
"-. c #E373A6",
";. c #EB70A7",
":. c #E475A8",
">. c #EB75AC",
",. c #E37AAD",
"<. c #EA79AE",
"1. c #F273AC",
"2. c #EC6DB0",
"3. c #EE6ABA",
"4. c #F36CBC",
"5. c #F56EBE",
"6. c #E37FB2",
"7. c #ED7CB3",
"8. c #ED70BA",
"9. c #E779B8",
"0. c #F377B0",
"q. c #F27AB3",
"w. c #F170BA",
"e. c #F07BBC",
"r. c #F66CC0",
"t. c #FB6BC2",
"y. c #958394",
"u. c #998598",
"i. c #9E899E",
"p. c #AE829F",
"a. c #A58DA5",
"s. c #B286A4",
"d. c #BC83A5",
"f. c #AC91AC",
"g. c #B899B9",
"h. c #C481A6",
"j. c #CF80AA",
"k. c #D380AB",
"l. c #C68DB2",
"z. c #CD8BB4",
"x. c #DD83B3",
"c. c #DD8ABA",
"v. c #C496BB",
"b. c #E382B5",
"n. c #EA82B7",
"m. c #E784B9",
"M. c #EE83BA",
"N. c #E28ABB",
"B. c #E989BE",
"V. c #F282BA",
"C. c #C09EC2",
"Z. c #DD94C4",
"A. c #D19EC9",
"S. c #E18FC0",
"D. c #EC8DC4",
"F. c #F18AC2",
"G. c #E592C5",
"H. c #F195CD",
"J. c #C4A1C6",
"K. c #DBACDA",
"L. c #DCB0DF",
"P. c #E6A0D4",
"I. c #E2A4D6",
"U. c #E7AADE",
"Y. c #DEB2E1",
"T. c #E5AFE2",
"R. c #E4B4E6",
"E. c #E7B7EB",
"W. c #E8B7EB",
"Q. c #E8B8EC",
/* pixels */
"Q.Q.Q.Q.Q.Q.Q.Q.Q.Q.t.t.t.t.w.2., & @ ! ( - 1 y.Z.P.W.Q.Q.Q.t.t.t.t.t.t.t.t.t.t.",
"Q.Q.Q.Q.Q.Q.Q.Q.Q.Q.t.3.f $ ! ( o . . ! ( o . . ~ ~ < a.L.Q.t.t.t.t.t.t.t.t.t.t.",
"Q.Q.Q.Q.Q.Q.Q.Q.Q.T.=.@ . . i V > . . ! ( o . * B Z . . @ m.5.t.t.t.t.t.t.t.t.t.",
"Q.Q.Q.Q.Q.Q.Q.Q.g.i B D . . > B A . . ! ( o . 9 V e . . u B F G t.t.t.t.t.t.t.t.",
"Q.Q.Q.Q.Q.Q.E.a.. o ~ ( & . @ M ! o . ! ( o . Y ) @ . $ ~ ( @ . f t.t.t.t.t.t.t.",
"Q.Q.Q.Q.Q.R.O.o . . 0 B P . . Y ) @ . ! ( o o M / o . F B u . . o ' 5.t.t.t.t.t.",
"Q.Q.Q.Q.E.j.B Y o . . I V > . t V e . ! ( o > B A . * B ! o . o J B @.t.t.t.t.t.",
"Q.Q.Q.Q.f.. F B Y o . & B ~ o : B Z . ! ( o y V 0 . I V = . o J B Y o g t.t.t.t.",
"Q.Q.Q.C.. . . F B Y o . A B u o ~ ~ o ! ( o ! ( X 0 B L . o J B Y o . . _ t.t.t.",
"Q.Q.T.D @ . . . F B Y o @ ~ ( @ U V $ ! ( & B Y @ ~ ( $ o J B Y o . . + T 5.t.t.",
"t.t.%.B ( u o . . F B Y o u B F 0 B u ! ( 0 B u i B i o J B Y o . . e #.*.D.W.Q.",
"t.3.o u ~ B ~ 0 . . F B Y @ ! ) s B S ! ( L V s ( ~ @ J B Y o . * ^ ( $.d + Y.Q.",
"t.g . . @ D B B K & . F B Y 0 B L ~ ( / ( ( ( P V u J B Y o $ J ( B E @ . . f.Q.",
"t.% . . . . & K B B D @ F B K Y B ( B ( B B ( B ! K B Y @ i ( ( Y & . . . . < Q.",
"w.( L q % . . . > ! B ( u F B ( B B B B B B B B ( B Y e ~ ( ~ 0 . . . @ a R $.P.",
"] ~ B B B ~ C 0 @ o u ( B ! ~ B B B B B B B B B B ( ! B ( i o o 4 i :.*.7.*.;.Z.",
", . & q L ( B B B ! y s F B B B B B B B B B B B B B B U h u  .( &.*.>.| e ; . u.",
"* . . . . . : r Y B B B B ~ B B B B B B B B B B B N ~ ( ( &.*.@.i 5 o . . . . 2 ",
"$ . . . . . . . . o > y / B B B B B B B B B B B B ( ( @.D 0 @ . . . . . . . . # ",
"K ~ ~ ~ ~ ~ ~ ~ ~ ~ ~ ~ ~ ( B B B B B B B B B B ( ( &.;.#.;.;.7.#.6.6.n.>.,.,.b.",
"L ^ ^ ^ ^ ^ ^ ^ ^ ^ ^ ^ ^ ( B B B B B B B B ( ( ( ( *.~ -.:.#.@.-.o.X.O.O.O.-.o.",
"# . . . . . . . . & q L ( B B B B B B B B ( B ( ( ( 1.&.Q s - . . . . . . . . $ ",
"1 . . . . @ 0 Z ~ B B B ~ ~ B B B B B B B ( B *.( &.$.;.&.1.0.b.{ a @ . . . . & ",
"y.o > y / B B B ( L q a K B B B B B B ( ( B ( &.&.=.0...a q E >.0.7.0.6.b 6 o , ",
"Z.( B B B ^ r * . @ D B B Y ~ B B B ( &.&.B &.*.*.>...1.1.W @   ; e } M.0.q.q.9.",
"I.! y > o . . o u ~ B ~ 0 J B ~ B B *.&.1.&.&.1.#.1.@.p X.V.D.l o . . . 3 c 6.4.",
"Q.# . . . . = ! B ( u @ J ( L Y *.#.&.*.&.&.<.*.@.E 0.,.@ h <.M.c.7 . . . . % t.",
"Q.a.. . % J B ( F @ o L B L 0 ( [ #.,.$.;.$.7.E =.z { M.,.@ @ n D.D.z.- . . g t.",
"Q.Y.@ A B ( Y & . o L ( H @ @.( a *.T ! >.H 0.a <.7.@ { M.x.@ . $ | V.D.d.% 4.t.",
"Q.Q.N.( ~ 0 . . o U ( H . z *.x q =.a @.n.q 0.b s V.W . n 7.O.@ . . 4 b.M.e.t.t.",
"t.t.5.i o . . o L &.E o @ #.#.o | 0.@ / 7.& >.O.o x.q.- . d.D.6.@ . . o x U.Q.Q.",
"t.t.t.` . . o Q ( [ o . E 0.a o <.,.o o.n.o O.F.+ 5 7.k.. . d.D.x.@ . . J.Q.Q.Q.",
"t.t.t.t.g @ L *.E . . 3 =. .o 3 7.m . ,.G.o x V.8 . } H.8 . . d.M.O.@ f.Q.Q.Q.Q.",
"t.t.t.t.t.o.&.E . . o  .1.* . u V.7 . ,.B.o = D.d.. - B.S.o . . d.M.c.E.Q.Q.Q.Q.",
"t.t.t.t.t.5.... . . k 0.h.. . o.V.@ . ,.D.o O 6.N.o . b F.p.. . . v.R.Q.Q.Q.Q.Q.",
"t.t.t.t.t.t.t.g . @ >.7.@ . @ 7.x.o . x.D.o . [ H.% . + 6.7.% . f.Q.Q.Q.Q.Q.Q.Q.",
"t.t.t.t.t.t.t.t.` v 1.c . . > V.s.. . 6.G.o . h F.j . . h M.} J.Q.Q.Q.Q.Q.Q.Q.Q.",
"t.t.t.t.t.t.t.t.t.r.G.@ . . { q.3 . . 6.G.o . - 7.l.. . o 9.R.Q.Q.Q.Q.Q.Q.Q.Q.Q.",
"t.t.t.t.t.t.t.t.t.t.Q.Y.a.# x.7.o . . -.B.o . . :.m.% f 3.t.Q.Q.Q.Q.Q.Q.Q.Q.Q.Q.",
"t.t.t.t.t.t.t.t.t.t.Q.Q.Q.Q.K.A.i.2 - @.b.& : w +.8.t.t.t.t.Q.Q.Q.Q.Q.Q.Q.Q.Q.Q."
};
