/* XPM */
static char *adb8ad33b56d4438cc941c3dbf0acf0c5OIZQhRc7BYyRkFr[] = {
/* columns rows colors chars-per-pixel */
"40 40 215 2 ",
"   c #3F37DF",
".  c #152BE6",
"X  c #192EE6",
"o  c #1D32E7",
"O  c #202EE4",
"+  c #2A36E5",
"@  c #2539E8",
"#  c #3535E1",
"$  c #4639DE",
"%  c #5A3EDB",
"&  c #3346EB",
"*  c #394BEC",
"=  c #3F51ED",
"-  c #5F45DD",
";  c #6942D9",
":  c #7746D6",
">  c #4E47E3",
",  c #4455ED",
"<  c #4956EC",
"1  c #4A5AEE",
"2  c #5559EA",
"3  c #655BE6",
"4  c #5362EF",
"5  c #5E64ED",
"6  c #5C6BEF",
"7  c #6563EA",
"8  c #686BED",
"9  c #756CE9",
"0  c #7774ED",
"q  c #606EF0",
"w  c #6472F0",
"e  c #6B78F0",
"r  c #717DF1",
"t  c #FE4DAE",
"y  c #FD54B2",
"u  c #FE5CB5",
"i  c #FC5DB9",
"p  c #FC64BB",
"a  c #F76BBF",
"s  c #FE6ABC",
"d  c #FE74BF",
"f  c #B518CF",
"g  c #AB0DD3",
"h  c #AF0ED8",
"j  c #B00FD8",
"k  c #AE14D3",
"l  c #B315D1",
"z  c #B619D0",
"x  c #B512DD",
"c  c #BD21CE",
"v  c #B936D8",
"b  c #BB16E3",
"n  c #BD1CE1",
"m  c #BF23E6",
"M  c #CC34CB",
"N  c #D53DC9",
"B  c #CA2FD6",
"V  c #C31BEC",
"C  c #C71EF1",
"Z  c #C82AEB",
"A  c #D42FE9",
"S  c #C339E4",
"D  c #D734E6",
"F  c #CB22F3",
"G  c #CC2BF3",
"H  c #CE33F4",
"J  c #CE3BF2",
"K  c #D13FF5",
"L  c #8E4CD2",
"P  c #944ED2",
"I  c #BD42DA",
"U  c #AD5BD1",
"Y  c #A567D9",
"T  c #BD63D1",
"R  c #8377EB",
"E  c #D14ECE",
"W  c #C75BDE",
"Q  c #E14CC7",
"!  c #EC58C7",
"~  c #F05BCC",
"^  c #E94FD4",
"/  c #D664C9",
"(  c #C97ECC",
")  c #D17DCC",
"_  c #CA65DF",
"`  c #D165D1",
"'  c #E365C6",
"]  c #EB66C4",
"[  c #EC6AC5",
"{  c #F867C4",
"}  c #F56CC2",
"|  c #FB6BC2",
" . c #E474C6",
".. c #FC74C2",
"X. c #FD7BC4",
"o. c #F47BC8",
"O. c #D04CED",
"+. c #D243F5",
"@. c #D44DF4",
"#. c #D554F6",
"$. c #D65BF1",
"%. c #D86BEF",
"&. c #DA78ED",
"*. c #D863F6",
"=. c #DA6AF5",
"-. c #DC72F6",
";. c #DD74F8",
":. c #DE7AF8",
">. c #07BFEA",
",. c #17BBE9",
"<. c #39AEE2",
"1. c #2AB5E6",
"2. c #3EBFEC",
"3. c #6E9BD9",
"4. c #7B97D7",
"5. c #4DA7DF",
"6. c #5AA3DD",
"7. c #7B86F2",
"8. c #52ADE4",
"9. c #4DB7E8",
"0. c #74A9E5",
"q. c #69BEEC",
"w. c #79BDEC",
"e. c #02C3ED",
"r. c #13C1EC",
"t. c #05C7F1",
"y. c #05C8F2",
"u. c #0ACDF6",
"i. c #0BCFF9",
"p. c #18CAF5",
"a. c #0ED2FB",
"s. c #13D5FE",
"d. c #1CD5FC",
"f. c #20CFFB",
"g. c #38C4F3",
"h. c #23D3FB",
"j. c #2CD7FE",
"k. c #26D9FE",
"l. c #37D1FB",
"z. c #3CDDFF",
"x. c #49CEFA",
"c. c #54CCF8",
"v. c #44DEFF",
"b. c #6EC9F6",
"n. c #4CE0FF",
"m. c #58E2FF",
"M. c #62E3FF",
"N. c #6BE5FF",
"B. c #74E7FF",
"V. c #7DE8FF",
"C. c #968ED3",
"Z. c #9B93D8",
"A. c #B984CF",
"S. c #A28AD1",
"D. c #8C87EF",
"F. c #8A94F3",
"G. c #A08CEC",
"H. c #AC91EB",
"J. c #B799EB",
"K. c #85A1E1",
"L. c #88BCEC",
"P. c #9ABBEC",
"I. c #A9BDEE",
"U. c #FE82C7",
"Y. c #F487CE",
"T. c #FC86C9",
"R. c #FD8BCB",
"E. c #FE94CE",
"W. c #EE98D9",
"Q. c #F798D5",
"!. c #FD9BD3",
"~. c #F99ED8",
"^. c #C1A2DB",
"/. c #EDA3DF",
"(. c #FEA2D4",
"). c #FCA2D9",
"_. c #F8A7DB",
"`. c #FFB4DC",
"'. c #FFB9DE",
"]. c #DB87EA",
"[. c #DC97E7",
"{. c #E186EE",
"}. c #E195EE",
"|. c #E289F9",
" X c #E597F9",
".X c #C9A4EC",
"XX c #D6ADEC",
"oX c #C1BBEE",
"OX c #CABCEE",
"+X c #DCB2EC",
"@X c #D3BAED",
"#X c #DCB9ED",
"$X c #E9A4E3",
"%X c #EBACE4",
"&X c #E5ACEB",
"*X c #E6B5EC",
"=X c #E9B5EA",
"-X c #E4B8EC",
";X c #E8B8EC",
":X c #FABEE5",
">X c #E9A8FA",
",X c #94C3F3",
"<X c #ABC4F2",
"1X c #83E9FF",
"2X c #8BEBFF",
"3X c #93ECFF",
"4X c #A6EFFF",
"5X c #A8EFFF",
"6X c #ABF0FF",
"7X c #BAF2FF",
"8X c #FFC9E6",
"9X c #F1C2EC",
"0X c #FFD7ED",
"qX c #F0D2F3",
"wX c #C1F4FF",
/* pixels */
";X;X;X;X;X;X;X;X;X;X| | | | | | | | | | ;X;X;X;X;X;X;X;X;X;X| | | | | | | | | | ",
";X;X;X;X;X;X;X*X&.$.^ | | | | | | | | | ;X;X;X;X;X;X;X=X/.Q...| | | | | | | | | ",
";X;X;X;X;X&X&.%.J F A N Q { | | | | | | ;X;X;X;X;X=X/.W.R.U...i i | | | | | | | ",
";X;X;X;X;X}.H +.@.+.Z x z ! | | | | | | ;X;X;X;X;X%XR.!.!.!.X.u y p | | | | | | ",
";X;X;X;X&X].J  X>X|.#.V z Q { | | | | | ;X;X;X;X=X$XR.8X0X8X(...y p | | | | | | ",
";X;X;X;X}.H G |.|.:.#.V g f ! | | | | | ;X;X;X;X%XT.R.8X8X'.(...t t p | | | | | ",
";X;X;X;X}.G G =.;.-.#.V g l ! | | | | | ;X;X;X;X%XT.T.`.`.`.(.d t t p | | | | | ",
";X;X;X;X&X].H H H H Z h l Q { | | | | | ;X;X;X;X=X/.T.R.R.R.X.y t i | | | | | | ",
";X;X;X].$.O.n x x x j g l D D ~ | | | | ;X;X;X%XQ.Y.p u u u u t y ..X...| | | | ",
";X{.-.@.F V g g g g h b b C F D E / ~.~.9X_.).E.U.X.y t t t y p s X.U...s X.~.~.",
"{ D K #.@.J x g c M S G #.#.+.m j I *X;X| X.E.(.!.R.p t y y ..T.!.(.E.d y a =X;X",
"~ A ;.>X X=.G x N ! =.+.>X>X|.+.b v [.=X| X.`.0X8X`.U.y u | W.E.0X0X:XE.s p /.=X",
"A F -. X:.=.G j g n F K  X|.:.+.b g v $XX.U.`.8X'.`.U.y t p U.E.8X:X`.E.s t p %X",
"A F #.;.-.*.Z h g n F H -.-.-.J b g v $XX.U.(.`.`._.U.y t p U.R.`.`.`.E.p t p %X",
"~ A G H H G x g N ! %.F H H H n g v [.=X| X.T.R.R.U.u t u | W.U.R.R.R.s y p /.=X",
"{ B x x x x g g Q | &.x x x x g g I *X;X| p u u u u t t p | W.u u u u y t a =X;X",
"| Q N B g l M N ! | [._ W k g I _ ].*X;X| p i y t t u i p | $XY.o.y t } Y.W.=X;X",
"| | | Q M N { | | | ;X*X&XW W [.;X;X;X;X| | | p y u | | | | ;X;X%Xo.o.W.;X;X;X;X",
"| | | | | | | | | | ;X*X;X;X;X;X;X;X;X;X| | | | | | | | | | ;X;X;X;X;X;X;X;X;X;X",
"~.~.~.~.~.~.~.~.~.~.9X9X9X9X9X9X9X9X9X9X~.~.~.~.~.~.~.~.~.~.9X9X9X9X9X9X9X9X9X9X",
";X;X;X*X;X;X;X;X#XoX) } | | | | | | | | ;X;X;X;X;X;X;X;X*X.X/ [ | | | | | | | | ",
";X;X;X;X;X;X#X@X<Xj.g.A. .[ | | | | | | ;X;X;X;X;X;X*XXX.X8 2 U ' ] | | | | | | ",
";X;X;X;X;X;Xb.l.l.s.s.1.1.C.| | | | | | ;X;X;X;X;X;XJ.7 5 1 , >   ; ] | | | | | ",
";X;X;X;X;X;Xb.v.2X1XM.d.t.4.| | | | | | ;X;X;X;X;X;XH.1 7.7.q , @ $ ] | | | | | ",
";X;X;X;X-X,Xl.M.wX4X1Xk.y.<.S.} | | | | ;X;X;X;X;XJ.0 4 F.7.e 4 & # L ] | | | | ",
";X;X;X;X#Xx.s.m.5X2X1Xk.y.e.5.} | | | | ;X;X;X;X;XD., 4 7.w w 4 & . # / | | | | ",
";X;X;X;X#Xb.h.z.B.B.N.h.y.,.3.} | | | | ;X;X;X;X;XG.4 1 6 6 6 1 @ O % ' | | | | ",
";X;X;X;X@XoXc.s.d.d.d.t.e.6.)  .| | | | ;X;X;X*X+X.XD.= , , , @ . $ ` ' } | | | ",
";X;X-XOXc.l.p.e.e.e.e.e.e.p.g.8. .} | | ;X;X*X+XR 7 < o o o o X . + 3 3 / } } | ",
"9X<Xc.x.d.s.y.e.e.e.e.u.i.a.s.p.8.8.^.~.9X+XR 0 2 , & . . . . @ & * , , - - Y ~.",
"| Z.k.N.N.m.h.t.1.4.q.h.n.B.M.v.u.e.P.;X| / 2 w e 6 , @ O : R 5 4 e e 4 & o 9 ;X",
") 0.z.7X7X3Xv.u.1.S.,Xj.1XwX4XB.d.e.q.oX' Y 2 F.F.r 4 * + P H.0 w F.7.w 1 @ 2 J.",
"0.s.z.6X3X2Xv.u.e.e.s.s.V.4X2XB.d.e.e.w.T < 1 7.e w 4 * X X * , q 7.w q 1 @ . 2 ",
"K.f.j.V.V.V.z.u.>.,.h.s.m.1XV.N.d.e.r.L.` 2 1 6 6 6 4 & X + < 1 4 q 6 6 , @ o 3 ",
" .K.s.k.k.k.u.e.<.( I.l.d.k.k.h.t.e.w.@X[ T 2 < 1 1 * o + U .X0 , 1 1 , @ X 3 .X",
"| C.y.y.y.y.e.e.5.[ @Xg.y.y.y.t.e.e.P.;X| / # @ @ @ o . # / ;X9 @ @ @ @ X . 9 ;X",
"| ( 4.3.,.e.5.4.S.} #XL.w.2.e.r.q.w.oX;X| ' P L # . $ L P ] ;XH.R 7 X X 7 R H.;X",
"| | |  .3.6.A.| | | ;X;X;XP.9.q.@X;X;X;X| | | } L ; P | | | ;X;X;X.X7 7 .X;X;X;X",
"| | | | } } | | | | ;X;X;X;X;X;X;X;X;X;X| | | | | } | | | | ;X;X;X*X*X*X*X;X;X;X",
").).).).).).).).).).qXqXqXqXqXqXqXqXqXqX).).).).).).).).).).qXqXqXqXqXqXqXqXqXqX"
};
