/* XPM */
static char *_75d6a3ca03c47d4ad91b430934b2cebiNXdaTNJMaEA9eWb[] = {
/* columns rows colors chars-per-pixel */
"40 40 212 2 ",
"   c #DA181E",
".  c #DF1D24",
"X  c #DA2C32",
"o  c #E62D34",
"O  c #ED3D44",
"+  c #DD4B54",
"@  c #EF4B51",
"#  c #F36B71",
"$  c #FCBE16",
"%  c #FE8D27",
"&  c #FE9229",
"*  c #FE9733",
"=  c #FDBE29",
"-  c #EDAC39",
";  c #FDBA38",
":  c #B4E935",
">  c #FDD606",
",  c #FDD20B",
"<  c #FDDA0B",
"1  c #FDC818",
"2  c #FDD414",
"3  c #FDDC13",
"4  c #FCD21B",
"5  c #FDDB1C",
"6  c #FFF103",
"7  c #FDC523",
"8  c #FDCD24",
"9  c #FDC52B",
"0  c #FBCC2B",
"q  c #FDD325",
"w  c #FDDA24",
"e  c #FCD22B",
"r  c #FCCA34",
"t  c #FCC63C",
"y  c #FCCB3D",
"u  c #FDD233",
"i  c #FDD23B",
"p  c #FEDA38",
"a  c #FDE326",
"s  c #FEEE3D",
"d  c #FE9E46",
"f  c #FDA748",
"g  c #FDB545",
"h  c #FEAA5A",
"j  c #F6BD57",
"k  c #FC9667",
"l  c #F98C79",
"z  c #FC967A",
"x  c #FCA66E",
"c  c #FDB26B",
"v  c #F6B978",
"b  c #BAE849",
"n  c #E8C345",
"m  c #FAC746",
"M  c #FDCC43",
"N  c #FCCC4C",
"B  c #FDD344",
"V  c #FEDC43",
"C  c #FDD34D",
"Z  c #F7C656",
"A  c #FDCD5A",
"S  c #FDD454",
"D  c #FDD55B",
"F  c #FCDA59",
"G  c #C1EF4D",
"H  c #CBF45E",
"J  c #FDE356",
"K  c #FEF251",
"L  c #FDC968",
"P  c #FDD464",
"I  c #FDDA65",
"U  c #FED66B",
"Y  c #FED96B",
"T  c #FAC677",
"R  c #FDCA73",
"E  c #FDD474",
"W  c #FDDB74",
"Q  c #FDD67B",
"!  c #FDDA7A",
"~  c #D9F579",
"^  c #FEEB6A",
"/  c #FEF26B",
"(  c #FEE778",
")  c #2B3DE7",
"_  c #3B4AEA",
"`  c #424CE7",
"'  c #4757ED",
"]  c #5661E8",
"[  c #636FEE",
"{  c #6270EF",
"}  c #6C79F0",
"|  c #E47981",
" . c #FB769E",
".. c #FB7A9C",
"X. c #FD53B0",
"o. c #FB76A5",
"O. c #FB79A4",
"+. c #FB73AB",
"@. c #FD65B8",
"#. c #FB6CBC",
"$. c #FC73B5",
"%. c #B418DD",
"&. c #B325D8",
"*. c #BA32DC",
"=. c #BF27E7",
"-. c #C837ED",
";. c #BE40DB",
":. c #FB6BC2",
">. c #FD77C1",
",. c #CE44EF",
"<. c #D24EF4",
"1. c #D758F5",
"2. c #CF79E4",
"3. c #7F85E5",
"4. c #17CBF3",
"5. c #2ECAEF",
"6. c #39D6FC",
"7. c #5CCFED",
"8. c #47DBFB",
"9. c #79DAEA",
"0. c #63D2F0",
"q. c #53E0FD",
"w. c #FA8789",
"e. c #F28B88",
"r. c #FA8794",
"t. c #F7BA85",
"y. c #EDB998",
"u. c #F1B893",
"i. c #EEB8A6",
"p. c #F0AEB4",
"a. c #EDB8B8",
"s. c #F2B6BE",
"d. c #CCDB97",
"f. c #FDC78A",
"g. c #FDD584",
"h. c #FDDC84",
"j. c #FCD78F",
"k. c #FDDD8C",
"l. c #FEC69A",
"z. c #FDDD94",
"x. c #FDDB9D",
"c. c #D0EA86",
"v. c #D9F985",
"b. c #FEE298",
"n. c #DEDFAC",
"m. c #FDC6A8",
"M. c #EAD7AF",
"N. c #FDD9A6",
"B. c #FCDBAC",
"V. c #FDC8B9",
"C. c #FEDEB6",
"Z. c #FED7B9",
"A. c #DEECA9",
"S. c #E8E8A7",
"D. c #FEE3A4",
"F. c #FEECA2",
"G. c #FEE4AC",
"H. c #FEE3B4",
"J. c #FAE4B8",
"K. c #E7F4B3",
"L. c #B4B0DC",
"P. c #8A8FF0",
"I. c #AEB0F3",
"U. c #FE89C8",
"Y. c #FE9DD2",
"T. c #EBB5C4",
"R. c #ECB9C6",
"E. c #EBB5CA",
"W. c #F8B8C6",
"Q. c #FEA7D6",
"!. c #E9B6D9",
"~. c #FEBADE",
"^. c #DB96E7",
"/. c #E181F7",
"(. c #E89AF0",
"). c #E8B7E5",
"_. c #E7B5EB",
"`. c #E8B8EC",
"'. c #87DBF3",
"]. c #89E6FC",
"[. c #9EEDFE",
"{. c #ACE4F7",
"}. c #FBC8C7",
"|. c #FEDCCB",
" X c #FECCD8",
".X c #FEE4C2",
"XX c #FDE3CB",
"oX c #FEEBC9",
"OX c #ECF3C5",
"+X c #F8E6D6",
"@X c #FEEAD4",
"#X c #FEEBDB",
"$X c #F4F0D5",
"%X c #DAD5F5",
"&X c #FDCDE4",
"*X c #FECAE8",
"=X c #FAD9E8",
"-X c #F2C8F1",
";X c #EED1F3",
":X c #CBECF9",
">X c #E8E6EF",
",X c #FEEBE4",
"<X c #F9E6EA",
"1X c #FEEEEC",
"2X c #F8F0E9",
"3X c #E9E7F6",
"4X c #FDE2F2",
"5X c #FDEEF3",
"6X c #F8EBF9",
"7X c #FCF1F5",
"8X c #F0F1F9",
"9X c #FEF2FA",
/* pixels */
"`.`.`.`.`.`.`.`.`.`.:.:.:.:.:.:.:.:.:.:.`.`.`.`.`.`.`.`.`.`.:.:.:.:.:.:.:.:.:.:.",
"`.`.`.`.`.`.`.`.`.`.:.:.:.:.:.:.:.:.:.:.`.`.`.`.`.`.`.`.`.`.:.:.:.:.:.:.:.:.:.:.",
"`.`.`.`.`.`.`.`.`.`.:.:.:.:.:.:.:.:.:.:.`.`.`.`.`.`.`.`.`.`.:.:.:.:.:.:.:.:.:.:.",
"`.`.`.`.`.`.`.`.`.`.:.:.:.:.:.:.:.:.#.#.`.`.`.`.`.`.`.`.`.`.:.:.:.:.:.:.:.:.:.:.",
"`.`.`.`.`.`.`.`.`.`.:.:.:.:.:.:.#.#.+.$.!.).`.`.`.`.`.`.`.`.:.:.:.:.:.:.:.:.:.:.",
"`.`.`.`.`.`.`.`.`.`.:.:.:.#.+.....w.h h j u.T.s.E.).`.`.`.`.:.:.:.:.:.:.:.:.:.:.",
"`.`.`.`.`.`.`.`.`.`.#.:.r.z c m = i I M 2 2 t A Z t.i.).`.`.:.:.:.:.:.:.:.:.:.:.",
"`.`.`.`.`.`.`.`.`.`.:.r.R F p P A N x.oXN.N P E 5 2 w y.).`.:.:.:.:.:.:.:.:.:.:.",
"`.`.`.`.`.`.`.`.`.E.z L p 1 9 U h.@X=X~.=X@Xk.Y 9 1 2 w v E.#.:.:.:.:.:.:.:.:.:.",
"`.`.`.`.`.`.`.`.R.T Y p Q D b.b.W  XY.U.$.W.( k.D.D Q w 3 m O.:.:.:.:.:.:.:.:.:.",
":.:.:.:.:.:.:.O.c J D N.,XD.! k.4XQ.~.*X>.>.4Xh.W G.#XB.S 3 m R.`.`.`.`.`.`.`.`.",
":.:.:.:.:.:.#.x I P #X9X+XXXoX@X4XY.Q.Q.>.#.=X@XoX}.}.9X,XU 3 Z !.`.`.`.`.`.`.`.",
":.:.:.:.:.#.r.U B .X1Xl.c h t.,X7X~.@.@.X.Q.9X<Xr.@ O e.<X@Xq 5 y.).`.`.`.`.`.`.",
":.:.:.:.#...R V z.7X|.c f.h * Z.7X4X~.U.~.4X9XW.@ # @ X s.5Xx.5 0 s.`.`.`.`.`.`.",
":.:.:.:.#.w.F M b.,Xl.h v h % t.1X1X@X@X#X1X5Xw.O # @   | ,Xz.y < v ).`.`.`.`.`.",
":.:.:.#...L i y k.G.|.d * & & Z.J.z.! Q C ! .X}.o . . X W.G.h.N > 0 a.`.`.`.`.`.",
":.:.:.#.w.Y D Y k.S ,XV.f d Z.B.I u A N r 4 F B.s.+ + p.<XD W h.C 5 v `.`.`.`.`.",
":.:.:.#.l C g.D b.XX5X9X,X#X.X! L f.m.= f.f.N u H.=X=X7X6X$Xk.I E 2 v `.`.`.`.`.",
":.:.:.#.k , g.D.( ^ F.,X5X,XE r V.*X}.q y V.m.8 A #X5X3X{.9.d.S.g.2 v ).`.`.`.`.",
":.:.:.+.= 5 B.oX/ K a W ,XC.D R  X&X}.q 2 r m m 2 B.8X].q.6.6.{.B.w 0 T.`.`.`.`.",
"`.`.`.T.8 B #X^ / F.s q H.C.S f.&X&Xm.8 1 r 2 $ , x.:X8.[.].4.7.>XN 7 ..:.:.:.:.",
"`.`.`.T.8 B ,X/ s K a q J.C.S f. XR 8 < t m.g ; , x.:X8.q.q.4.0.3XN 7 ..:.:.:.:.",
"`.`.`.E.r 5 B.J.p 2 4 ! ,XC.e R V.8 6 6 m  XV.L 4 B.8X'.4.4.5.{.B.w =  .:.:.:.:.",
"`.`.`.).t., g.G.z.Y D.1X7X,XU e l.N 5 5 R &XV.4 A ,X5X6X{.9.n.J.Q 2 k :.:.:.:.:.",
"`.`.`.).u.2 Q D b..X9X9X2X$X.XC A L t.t.V.f.M i H.;X;X9X9XoXk.Y E 4 k #.#.:.:.:.",
"`.`.`.).u.< i P h.P 1XK.~ ~ S.J.S 4 e e e 2 e C.(.<.,.^.6XD I ! i 2 k :.#.:.:.:.",
"`.`.`.`.T.y , M D..X$Xv.OX~ G OXXXh.r M y Q @X-X1./.<.*.-X.Xb.C , = O.:.:.:.:.:.",
"`.`.`.`.!.v < 0 ! ,XA.v.K.v.: c.5X5X<X>X<X5X9X/.<./.1.%.2.<X( e < k #.:.:.:.:.:.",
"`.`.`.`.`.T.r w x.5XOXH H G : K.7X3XI.P.I.%X7X`.-.-.=.&._.5Xx.w 9 O.:.:.:.:.:.:.",
"`.`.`.`.`.).i.e e XX2XA.b b A.2X7XI.{ { _ P.7X6X(.;.*.^.4X+X0 8 w.#.:.:.:.:.:.:.",
":.:.:.:.:.:.#.f 3 D #X7X$X$X@X#X>X[ } } _ _ %X#X@X;X-X7X,XP 3 Z !.`.`.`.`.`.`.`.",
":.:.:.:.:.:.:.+.g 3 S B.,XG.h.k.M.3.' ] ) ] M.h.! H.#XC.S 3 m T.`.`.`.`.`.`.`.`.",
":.:.:.:.:.:.:.:.+.g < 2 Q S D.D.F L.` ) ` L.J z.G.S Q q < ; T.`.`.`.`.`.`.`.`.`.",
":.:.:.:.:.:.:.:.:.+.t.e 3 1 r Q j.+X%XI.%X+Xz.Q r 1 3 8 k o.`.`.`.`.`.`.`.`.`.`.",
":.:.:.:.:.:.:.:.:.:.).i.e 2 3 u i B j.Z.x.B i u 3 2 7 w.#.:.`.`.`.`.`.`.`.`.`.`.",
":.:.:.:.:.:.:.:.:.:.`.).a.u.Z 0 0 4 3 4 2 2 = 7 g l w.#.:.:.`.`.`.`.`.`.`.`.`.`.",
":.:.:.:.:.:.:.:.:.:.`.`.).).!.E.E.y.n n - l +.o.$.#.#.:.:.:.`.`.`.`.`.`.`.`.`.`.",
":.:.:.:.:.:.:.:.:.:.`.`.`.`.`.`.`.`.`.`.:.:.:.:.:.:.:.:.:.:.`.`.`.`.`.`.`.`.`.`.",
":.:.:.:.:.:.:.:.:.:.`.`.`.`.`.`.`.`.`.`.:.:.:.:.:.:.:.:.:.:.`.`.`.`.`.`.`.`.`.`.",
":.:.:.:.:.:.:.:.:.:.`.`.`.`.`.`.`.`.`.`.:.:.:.:.:.:.:.:.:.:.`.`.`.`.`.`.`.`.`.`."
};
