/* XPM */
static char *_e46dabf6b24492f832ae0ee68f15227yctooqp9KOZKvll3[] = {
/* columns rows colors chars-per-pixel */
"40 40 183 2 ",
"   c #030202",
".  c #070009",
"X  c #0C070C",
"o  c #0D0B0A",
"O  c #120E0E",
"+  c #110115",
"@  c #140E12",
"#  c #16011C",
"$  c #191118",
"%  c #1B141B",
"&  c #1E1A1E",
"*  c #231C1E",
"=  c #22201F",
"-  c #1B0222",
";  c #1E1622",
":  c #1F1B20",
">  c #24032D",
",  c #241C23",
"<  c #2B1B2C",
"1  c #301425",
"2  c #270232",
"3  c #2A0236",
"4  c #252125",
"5  c #2B272A",
"6  c #34282A",
"7  c #3E3127",
"8  c #2F2531",
"9  c #36283A",
"0  c #44372D",
"q  c #493734",
"w  c #4F4232",
"e  c #52423E",
"r  c #62513E",
"t  c #340342",
"y  c #3C034D",
"u  c #3A1B43",
"i  c #3B2A43",
"p  c #460459",
"a  c #480759",
"s  c #4A045E",
"d  c #4C1657",
"f  c #541850",
"g  c #4E2845",
"h  c #44354A",
"j  c #473848",
"k  c #4B3B4C",
"l  c #4E2958",
"z  c #512C5A",
"x  c #4D3858",
"c  c #503F52",
"v  c #612A4B",
"b  c #692E53",
"n  c #76325B",
"m  c #4E0463",
"M  c #510665",
"N  c #54046B",
"B  c #5B0573",
"V  c #5F0579",
"C  c #62057D",
"Z  c #543E61",
"A  c #7E3561",
"S  c #464546",
"D  c gray30",
"F  c #564946",
"G  c #5A4959",
"H  c #535353",
"J  c #5C595C",
"K  c #6A5643",
"L  c #5B4563",
"P  c #5B4466",
"I  c #634A6A",
"U  c #625C62",
"Y  c #605169",
"T  c #664B74",
"R  c #684B76",
"E  c #684C78",
"W  c #745C76",
"Q  c #656565",
"!  c #756A77",
"~  c #7A627C",
"^  c #777677",
"/  c #7C707F",
"(  c #7B7B7B",
")  c #873B69",
"_  c #823F68",
"`  c #84476C",
"'  c #8F4B74",
"]  c #974778",
"[  c #80757B",
"{  c #C09D7D",
"}  c #CAA67F",
"|  c #660682",
" . c #6B0788",
".. c #745585",
"X. c #7C5A8D",
"o. c #7C7180",
"O. c #AC4985",
"+. c #B34D8A",
"@. c #BB5192",
"#. c #856B87",
"$. c #937187",
"%. c #866298",
"&. c #907393",
"*. c #9B799B",
"=. c #9C7C9E",
"-. c #AF6191",
";. c #956DAA",
":. c #9975A9",
">. c #9E74B5",
",. c #B06CAE",
"<. c #A27EA4",
"1. c #A075B7",
"2. c #A27BB8",
"3. c #C45B97",
"4. c #CF58A0",
"5. c #D95DA7",
"6. c #E160AE",
"7. c #E763B4",
"8. c #E963B4",
"9. c #F367BC",
"0. c #F568BD",
"q. c #FB6BC2",
"w. c #50BFF9",
"e. c gray51",
"r. c #8C8C8C",
"t. c #908892",
"y. c #919191",
"u. c #989598",
"i. c #9C9C9C",
"p. c #9D80BE",
"a. c #A684A9",
"s. c #A886A9",
"d. c #B68BAE",
"f. c #AC88B9",
"g. c #B28DB5",
"h. c #BA93BD",
"j. c #A4A4A4",
"k. c #AAAAAA",
"l. c #B2B1B2",
"z. c gray72",
"x. c #CFAA82",
"c. c #DBB389",
"v. c #DBB58E",
"b. c #E1B78D",
"n. c #E7BE94",
"m. c #E3B7A0",
"M. c #EEC295",
"N. c #F1C597",
"B. c #F4C79A",
"V. c #F6C99A",
"C. c #F9CB9C",
"Z. c #ECC8A4",
"A. c #BF97C2",
"S. c #C199C4",
"D. c #E68EC6",
"F. c #EE95CE",
"G. c #FA9BD7",
"H. c #F99ED8",
"J. c #CAA0CD",
"K. c #D1A6CF",
"L. c #CEA3D2",
"P. c #D2A6D6",
"I. c #D6A9DA",
"U. c #FCA2D9",
"Y. c #E2B3E5",
"T. c #E6B6EA",
"R. c #E9BBE9",
"E. c #E8B8EC",
"W. c #C4C4C4",
"Q. c #CCCBCC",
"!. c #CCC5D0",
"~. c #D5D3D5",
"^. c gainsboro",
"/. c #DADBE4",
"(. c #F1C2EC",
"). c #E6DFE8",
"_. c #F0D2F3",
"`. c #E4E4E4",
"'. c #EAE5EB",
"]. c #EAEAEA",
"[. c #EDECF5",
"{. c #F3F3F3",
"}. c #FEFEFE",
/* pixels */
"E.E.E.E.E.E.E.E.E.E.q.q.q.q.q.q.q.q.q.q.E.E.E.E.E.E.E.E.E.E.q.q.q.q.q.q.q.q.q.q.",
"E.E.E.E.E.E.E.E.E.E.q.q.q.q.q.q.q.q.q.q.E.E.T.T.T.T.E.E.E.E.q.q.q.q.q.q.q.q.q.q.",
"E.E.E.E.E.E.E.E.E.E.q.q.q.q.q.q.q.q.q.q.E.E.Y j j j g.E.E.E.q.q.q.q.q.q.q.q.q.q.",
"E.E.E.E.E.E.E.E.E.E.q.q.q.q.q.q.q.q.q.q.G c T E E E L g.E.E.q.q.q.q.q.q.q.q.q.q.",
"E.E.E.E.E.E.E.E.E.E.q.q.q.q.q.q.q.q.0.v T R ;.1.>.>.X.L s.E.q.q.q.q.q.q.q.q.q.q.",
"E.E.E.E.E.E.E.E.E.E.q.q.q.q.q.q.q.0.b R >.1.1.1.>.P X.X.L a.q.q.q.q.q.q.q.q.q.q.",
"E.E.E.E.E.E.E.E.E.E.q.q.q.q.q.q.0.b T >.>.1.1.1.>.9 R 1.X.P O.q.q.q.q.q.q.q.q.q.",
"E.E.E.E.E.E.E.E.E.E.q.q.q.q.q.0.n I >.1.>.1.1.1.>...x h h ; A q.q.q.q.q.q.q.q.q.",
"E.E.E.E.E.E.E.E.E.E.q.q.q.q.q.n X ;.1.1.1.1.P x %.1.i k ~ ~ @.q.q.q.q.q.q.q.q.q.",
"(.(.(.(.(.(.(.(.(.(.H.H.H.F.` ^ X ;.>.>.>.1.; J Y %.i *.s.~ _ _ -.G.G.G.G.G.G.G.",
"q.q.q.q.q.q.q.q.q.q.E.E.I.~ ( }.( L Z Z Z Z ! ^.j.Y ; g f t t t l :.E.E.E.E.E.E.",
"q.q.q.q.q.q.q.q.q.q.E.L.~ e.}.}.{.e.( ( ( ^ `.}.}.j.5 > N  . . .N l =.E.E.E.E.E.",
"q.q.q.q.q.q.q.q.q.q.J.~ r.}.}.}.}.}.}.}.}.}.}.}.}.}.j.z N  .M m  .p k E.E.E.E.E.",
"q.q.q.q.q.q.q.q.q.5.#.r.}.}.}.}.}.}.}.}.}.}.}.}.}.}.}.i.z y z z m p k E.E.E.E.E.",
"q.q.q.q.q.q.q.q.q.+.S }.}.{.i.i.i.i.i.i.i.i.i.i.i.^.}.}.Q   W s.z d #.E.E.E.E.E.",
"q.q.q.q.q.q.q.q.q.+.S }.{.i.> > > > > > > > > > > / ^.}.Q 1 =.T.g.#.T.E.E.E.E.E.",
"q.q.q.q.q.q.q.6.O.' ( ].u.2  .s  . . . . . . .M C y o.`.y.` <.A.E.E.E.E.E.E.E.E.",
"q.q.q.q.q.q.5.' D e.].t.3  .s > | m  . . .m C t y V y / ^.i.D ! h.E.E.E.E.E.E.E.",
"q.q.q.q.q.q.] H }.}.z.- | s -  .m q s  .m q a C t y V 2 i.}.}.y.G E.E.E.E.E.E.E.",
"H.H.H.H.H.H.$.H }.}.z.- B . M M q b.@ C . v.r d m - p 2 i.}.}.y.G (.(.(.(.(.(.(.",
"E.E.E.E.E.E.&.H }.}.z.- B #   7 M.M.0 M 6 n.V.K O + m 2 i.}.}.y.v q.q.q.q.q.q.q.",
"E.E.E.E.E.E.&.H }.}.z.-  .C   N.} B.M.0 n.C.x.n.w p  .2 i.}.}.y.v q.q.q.q.q.q.q.",
"E.E.E.E.E.E.<.U ^.}.W.9 B C   N.6 n.C.B.C.C.q { w p  .2 i.}.`.$.n q.q.q.q.q.q.q.",
"E.E.E.E.E.E.T.=.H }.}.W.+ C   B.d.B.C.C.C.C.d.m.w p V u k.}.( b q.q.q.q.q.q.q.q.",
"E.E.E.E.E.E.E.a.J `.}.Q.8 N   V.C.C.C.C.C.C.C.V.w y u k.}.].[ ) q.q.q.q.q.q.q.q.",
"E.E.E.E.E.E.E.T.a.J ].}.~., = c.c.c.c.c.c.c.c.c.F , k.}.].^ ) 0.q.q.q.q.q.q.q.q.",
"E.E.E.E.E.E.E.E.T.a.G `.`.^.~.o * o $ = % o & O u.^.`.`.! &.0.q.q.q.q.q.q.q.q.q.",
"E.E.E.E.E.E.E.E.E.Y.+., , , , $ W., :./.2.% l.S : 4 4 4 &.Y.q.q.q.q.q.q.q.q.q.q.",
"E.E.E.E.E.E.E.E.E.E.0.7.7.7.7.4.6 %.'.w.[.;.9 =.P.I.I.I.Y.E.q.q.q.q.q.q.q.q.q.q.",
"(.(.(.(.(.(.(.(.(.(.H.H.H.H.D., v.* ).p.[.4 { e a.R.(.(.(.(.H.H.H.H.H.H.H.H.H.H.",
"q.q.q.q.q.q.q.q.q.q.E.E.E.I.& >.K., :.>.2.& 3.,.g O.q.q.q.q.E.E.E.E.E.E.E.E.E.E.",
"q.q.q.q.q.q.q.q.q.q.E.E.E.T.I.P.8 ~.f.>.2./.j @.7.9.q.q.q.q.E.E.E.E.E.E.E.E.E.E.",
"q.q.q.q.q.q.q.q.q.q.E.E.E.E.T., Q.f.).1.'.f.!.F +.q.q.q.q.q.E.E.E.E.E.E.E.E.E.E.",
"q.q.q.q.q.q.q.q.q.q.E.E.E.E.T.. 5 , n.4 Z.6 5 @ O.q.q.q.q.q.E.E.E.E.E.E.E.E.E.E.",
"q.q.q.q.q.q.q.q.q.q.E.E.E.E.T.A.h.$ *.@ <.@ O.4.8.q.q.q.q.q.E.E.E.E.E.E.E.E.E.E.",
"q.q.q.q.q.q.q.q.q.q.E.E.E.E.E.E.T.h.9 g.< @.9.q.q.q.q.q.q.q.E.E.E.E.E.E.E.E.E.E.",
"q.q.q.q.q.q.q.q.q.q.E.E.E.E.E.E.E.T.S.T.4.0.q.q.q.q.q.q.q.q.E.E.E.E.E.E.E.E.E.E.",
"q.q.q.q.q.q.q.q.q.q.E.E.E.E.E.E.E.E.E.E.q.q.q.q.q.q.q.q.q.q.E.E.E.E.E.E.E.E.E.E.",
"q.q.q.q.q.q.q.q.q.q.E.E.E.E.E.E.E.E.E.E.q.q.q.q.q.q.q.q.q.q.E.E.E.E.E.E.E.E.E.E.",
"U.U.U.U.U.U.U.U.U.U._._._._._._._._._._.U.U.U.U.U.U.U.U.U.U._._._._._._._._._._."
};
